name rise34.3697peak60.0498fall86.3158.mot
datacolumns 19
datarows 23
range 7.17664400000000 7.21331000000000
endheader
time	ground_force1_vx	ground_force1_vy	ground_force1_vz	ground_force1_px	ground_force1_py	ground_force1_pz	ground_force2_vx	ground_force2_vy	ground_force2_vz	ground_force2_px	ground_force2_py	ground_force2_pz	ground_torque1_x	ground_torque1_y	ground_torque1_z	ground_torque2_x	ground_torque2_y	ground_torque2_z	
7.17664400000000	-51.68013500000000	857.62014499999998	60.75643400000000	0.22342000000000	0.00000000000000	0.11491100000000	-7.05183700000000	31.71587600000000	7.32029000000000	0.45063200000000	0.00000000000000	-0.06059900000000	0.00000000000000	36.61849900000000	0.00000000000000	0.00000000000000	6.42878700000000	0.00000000000000	
7.17831600000000	-51.91683300000000	855.48983599999997	60.75302100000000	0.22274100000000	0.00000000000000	0.11487500000000	-8.08025800000000	37.52136900000000	8.47072000000000	0.45455800000000	0.00000000000000	-0.06096600000000	0.00000000000000	36.52291300000000	0.00000000000000	0.00000000000000	7.47529000000000	0.00000000000000	
7.17996900000000	-52.16125200000000	853.19019600000001	60.72308700000000	0.22206900000000	0.00000000000000	0.11483500000000	-9.02945600000000	43.34365200000000	9.56425400000000	0.45823500000000	0.00000000000000	-0.06132200000000	0.00000000000000	36.41989100000000	0.00000000000000	0.00000000000000	8.47981200000000	0.00000000000000	
7.18164000000000	-52.41421500000000	850.72204499999998	60.66612600000000	0.22140400000000	0.00000000000000	0.11479100000000	-9.87081100000000	49.07545400000000	10.57228800000000	0.46168400000000	0.00000000000000	-0.06166900000000	0.00000000000000	36.30952500000000	0.00000000000000	0.00000000000000	9.41617000000000	0.00000000000000	
7.18330800000000	-52.67649700000000	848.08631500000001	60.58168200000000	0.22074500000000	0.00000000000000	0.11474300000000	-10.58253800000000	54.63099800000000	11.47261000000000	0.46492600000000	0.00000000000000	-0.06200900000000	0.00000000000000	36.19191400000000	0.00000000000000	0.00000000000000	10.26364900000000	0.00000000000000	
7.18497200000000	-52.94881300000000	845.28404300000000	60.46934400000000	0.22009200000000	0.00000000000000	0.11469000000000	-11.15046500000000	59.95002600000000	12.25025500000000	0.46797800000000	0.00000000000000	-0.06234300000000	0.00000000000000	36.06716000000000	0.00000000000000	0.00000000000000	11.00788700000000	0.00000000000000	
7.18664200000000	-53.23182200000000	842.31635800000004	60.32875200000000	0.21944400000000	0.00000000000000	0.11463200000000	-11.56808000000000	64.99910000000000	12.89763800000000	0.47085400000000	0.00000000000000	-0.06267300000000	0.00000000000000	35.93537000000000	0.00000000000000	0.00000000000000	11.64109600000000	0.00000000000000	
7.18830300000000	-53.52611700000000	839.18447400000002	60.15959600000000	0.21880000000000	0.00000000000000	0.11457000000000	-11.83593300000000	69.77049599999999	13.41406600000000	0.47356900000000	0.00000000000000	-0.06299900000000	0.00000000000000	35.79665200000000	0.00000000000000	0.00000000000000	12.16171300000000	0.00000000000000	
7.18997300000000	-53.83222100000000	835.88967800000000	59.96161700000000	0.21816200000000	0.00000000000000	0.11450400000000	-11.96057400000000	74.27916399999999	13.80475700000000	0.47613500000000	0.00000000000000	-0.06332300000000	0.00000000000000	35.65111700000000	0.00000000000000	0.00000000000000	12.57359200000000	0.00000000000000	
7.19163500000000	-54.15058500000000	832.43332399999997	59.73461200000000	0.21752700000000	0.00000000000000	0.11443200000000	-11.95317400000000	78.55835000000000	14.07955800000000	0.47856100000000	0.00000000000000	-0.06364400000000	0.00000000000000	35.49887900000000	0.00000000000000	0.00000000000000	12.88489100000000	0.00000000000000	
7.19330400000000	-54.48158300000000	828.81682100000000	59.47842800000000	0.21689600000000	0.00000000000000	0.11435600000000	-11.82801000000000	82.65447000000000	14.25149000000000	0.48085700000000	0.00000000000000	-0.06396400000000	0.00000000000000	35.34005100000000	0.00000000000000	0.00000000000000	13.10679100000000	0.00000000000000	
7.19497500000000	-54.82550800000000	825.04162499999995	59.19296800000000	0.21626800000000	0.00000000000000	0.11427500000000	-11.60095900000000	86.62179500000001	14.33529600000000	0.48303200000000	0.00000000000000	-0.06428300000000	0.00000000000000	35.17474700000000	0.00000000000000	0.00000000000000	13.25218600000000	0.00000000000000	
7.19664100000000	-55.18256800000000	821.10923200000002	58.87819000000000	0.21564300000000	0.00000000000000	0.11418900000000	-11.28812100000000	90.51740500000000	14.34609900000000	0.48509400000000	0.00000000000000	-0.06460100000000	0.00000000000000	35.00308300000000	0.00000000000000	0.00000000000000	13.33446000000000	0.00000000000000	
7.19830400000000	-55.55288400000000	817.02116899999999	58.53410700000000	0.21502100000000	0.00000000000000	0.11409800000000	-10.90466200000000	94.39677200000000	14.29825400000000	0.48704800000000	0.00000000000000	-0.06491900000000	0.00000000000000	34.82517100000000	0.00000000000000	0.00000000000000	13.36643000000000	0.00000000000000	
7.19997400000000	-55.93648500000000	812.77898600000003	58.16078900000000	0.21440000000000	0.00000000000000	0.11400200000000	-10.46392700000000	98.31021400000000	14.20446100000000	0.48890200000000	0.00000000000000	-0.06523600000000	0.00000000000000	34.64112400000000	0.00000000000000	0.00000000000000	13.35951200000000	0.00000000000000	
7.20163500000000	-56.33330800000000	808.38424999999995	57.75836000000000	0.21378200000000	0.00000000000000	0.11390200000000	-9.97684800000000	102.30033600000000	14.07515600000000	0.49066200000000	0.00000000000000	-0.06555300000000	0.00000000000000	34.45105200000000	0.00000000000000	0.00000000000000	13.32314500000000	0.00000000000000	
7.20330500000000	-56.74319100000000	803.83853799999997	57.32700200000000	0.21316500000000	0.00000000000000	0.11379600000000	-9.45163200000000	106.40047900000000	13.91817700000000	0.49233100000000	0.00000000000000	-0.06587000000000	0.00000000000000	34.25506200000000	0.00000000000000	0.00000000000000	13.26445600000000	0.00000000000000	
7.20497200000000	-57.16587700000000	799.14343199999996	56.86695300000000	0.21254900000000	0.00000000000000	0.11368600000000	-8.89372200000000	110.63411600000001	13.73868500000000	0.49391400000000	0.00000000000000	-0.06618700000000	0.00000000000000	34.05325900000000	0.00000000000000	0.00000000000000	13.18816300000000	0.00000000000000	
7.20664200000000	-57.60100500000000	794.30050900000003	56.37850500000000	0.21193400000000	0.00000000000000	0.11357100000000	-8.30595400000000	115.01507400000000	13.53930000000000	0.49541600000000	0.00000000000000	-0.06650400000000	0.00000000000000	33.84574400000000	0.00000000000000	0.00000000000000	13.09668100000000	0.00000000000000	
7.20830800000000	-58.04811500000000	789.31134399999996	55.86200600000000	0.21131900000000	0.00000000000000	0.11345000000000	-7.68889800000000	119.54840299999999	13.32039900000000	0.49684000000000	0.00000000000000	-0.06682100000000	0.00000000000000	33.63261200000000	0.00000000000000	0.00000000000000	12.99037600000000	0.00000000000000	
7.20997400000000	-58.50664200000000	784.17749700000002	55.31786000000000	0.21070400000000	0.00000000000000	0.11332500000000	-7.04129300000000	124.23171499999999	13.08053100000000	0.49819000000000	0.00000000000000	-0.06713700000000	0.00000000000000	33.41395600000000	0.00000000000000	0.00000000000000	12.86792900000000	0.00000000000000	
7.21163600000000	-58.97592000000000	778.90051600000004	54.74652300000000	0.21008900000000	0.00000000000000	0.11319500000000	-6.36055000000000	129.05680500000000	12.81688400000000	0.49946800000000	0.00000000000000	-0.06745300000000	0.00000000000000	33.18986200000000	0.00000000000000	0.00000000000000	12.72676400000000	0.00000000000000	
7.21331000000000	-59.45517500000000	773.48192700000004	54.14850800000000	0.20947300000000	0.00000000000000	0.11306100000000	-5.64325300000000	134.01138399999999	12.52577700000000	0.50067700000000	0.00000000000000	-0.06776900000000	0.00000000000000	32.96041100000000	0.00000000000000	0.00000000000000	12.56349000000000	0.00000000000000	
